# xmcd
#
# Track frame offsets:
# 150
# 15652
# 33947
# 49895
# 77670
# 105477
# 124400
# 140620
# 166957
# 185042
# 203720
# 225490
# 246155
# 268315
# 294540
#
# Disc length: 4394 seconds
#
# Revision: 1
# Processed by: cddbd v1.5.1PL0 Copyright (c) Steve Scherf et al.
# Submitted via: Axialis_AX_CDPlayer 2.6
#
DISCID=d611280f
DTITLE=Barry White - Gold
DYEAR=1900
DGENRE=
TTITLE0=You're The First, The Last, My Everything
TTITLE1=Can;t Get Enough Of Your Love, Babe
TTITLE2=Let The Music Play
TTITLE3=Staying Power
TTITLE4=Change
TTITLE5=All Do For You Anything You Want Me To
TTITLE6=What Am I Gonna Do With You
TTITLE7=Come On
TTITLE8=I'm Gonna Love You Just A Little More, Baby
TTITLE9=Never, Never Gonna Give You Up
TTITLE10=Just The Way You Are
TTITLE11=All Around The World (with Lisa Stansfield)
TTITLE12=Dark And Lonely (You Over There) [with Isaak Hayes]
TTITLE13=The longer We Make Love [with Chaka Khan]
TTITLE14=Love's Interlude - Good Night My Love
EXTD=
EXTT0=
EXTT1=
EXTT2=
EXTT3=
EXTT4=
EXTT5=
EXTT6=
EXTT7=
EXTT8=
EXTT9=
EXTT10=
EXTT11=
EXTT12=
EXTT13=
EXTT14=
PLAYORDER=
